<svg width="34" height="34" viewBox="0 0 34 34" fill="none" xmlns="http://www.w3.org/2000/svg">
<path d="M16.5323 33.4106C25.6628 33.4106 33.0645 25.9314 33.0645 16.7053C33.0645 7.47921 25.6628 0 16.5323 0C7.40174 0 0 7.47921 0 16.7053C0 25.9314 7.40174 33.4106 16.5323 33.4106Z" fill="white"/>
<path d="M20.5939 8.59131H18.5159C16.1535 8.59131 14.7363 10.1187 14.7363 12.6001V14.4149H12.5638C12.4902 14.4193 12.4207 14.4509 12.3685 14.5037C12.3163 14.5564 12.285 14.6266 12.2806 14.7011V17.3743C12.285 17.4488 12.3163 17.519 12.3685 17.5717C12.4207 17.6245 12.4902 17.6561 12.5638 17.6605H14.6419V24.3426C14.6463 24.4171 14.6776 24.4873 14.7298 24.54C14.7819 24.5928 14.8514 24.6244 14.9251 24.6288H17.6695C17.7432 24.6244 17.8127 24.5928 17.8648 24.54C17.917 24.4873 17.9483 24.4171 17.9527 24.3426V17.6594H20.404C20.4777 17.6549 20.5472 17.6234 20.5993 17.5706C20.6515 17.5179 20.6828 17.4477 20.6872 17.3732V14.7011C20.6872 14.6057 20.6872 14.5103 20.5928 14.5103C20.6872 14.4149 20.5928 14.4149 20.4984 14.4149H18.0438V12.8874C18.0438 12.1243 18.2326 11.7416 19.1778 11.7416H20.5939C20.6676 11.7371 20.7371 11.7055 20.7893 11.6528C20.8414 11.6 20.8727 11.5298 20.8771 11.4554V8.87749C20.9715 8.7821 20.7827 8.59131 20.5939 8.59131Z" fill="#303030"/>
</svg>
