<svg width="35" height="34" viewBox="0 0 35 34" fill="none" xmlns="http://www.w3.org/2000/svg">
<path d="M34.1155 17C34.1155 26.1176 26.8021 33.5 17.7915 33.5C8.78098 33.5 1.46762 26.1176 1.46762 17C1.46762 7.88238 8.78098 0.5 17.7915 0.5C26.8021 0.5 34.1155 7.88238 34.1155 17Z" stroke="#FC9813"/>
<path d="M17.7917 33.4355C26.7748 33.4355 34.0571 26.077 34.0571 16.9999C34.0571 7.92277 26.7748 0.564301 17.7917 0.564301C8.80859 0.564301 1.52634 7.92277 1.52634 16.9999C1.52634 26.077 8.80859 33.4355 17.7917 33.4355Z" fill="#FC9813"/>
<path d="M20.5969 9.32626H14.685C14.0383 9.32612 13.3979 9.45472 12.8004 9.70472C12.2029 9.95473 11.66 10.3212 11.2027 10.7833C10.7454 11.2454 10.3827 11.794 10.1353 12.3978C9.88787 13.0015 9.7606 13.6486 9.76074 14.3021V20.2758C9.7606 20.9293 9.88787 21.5764 10.1353 22.1801C10.3827 22.7839 10.7454 23.3325 11.2027 23.7946C11.66 24.2567 12.2029 24.6232 12.8004 24.8732C13.3979 25.1232 14.0383 25.2518 14.685 25.2516H20.5969C21.9024 25.251 23.1542 24.7265 24.077 23.7934C24.9998 22.8603 25.5181 21.595 25.5178 20.2758V14.3021C25.5181 12.9829 24.9998 11.7176 24.077 10.7845C23.1542 9.8514 21.9024 9.32686 20.5969 9.32626ZM24.0443 20.2758C24.0431 21.199 23.6794 22.084 23.0331 22.7365C22.3867 23.389 21.5105 23.7556 20.5969 23.7559H14.685C13.7714 23.7556 12.8952 23.389 12.2488 22.7365C11.6025 22.084 11.2388 21.199 11.2376 20.2758V14.3021C11.2379 13.3783 11.6012 12.4924 12.2476 11.8392C12.8941 11.186 13.7708 10.8189 14.685 10.8186H20.5969C21.5111 10.8189 22.3878 11.186 23.0342 11.8392C23.6807 12.4924 24.044 13.3783 24.0443 14.3021V20.2758Z" fill="#303030"/>
<path d="M17.6388 13.3063C16.8598 13.3063 16.0982 13.5398 15.4504 13.9771C14.8027 14.4145 14.2978 15.0361 13.9997 15.7634C13.7015 16.4907 13.6235 17.291 13.7755 18.063C13.9275 18.8351 14.3027 19.5443 14.8535 20.101C15.4044 20.6576 16.1063 21.0367 16.8703 21.1903C17.6344 21.3439 18.4264 21.265 19.1462 20.9638C19.8659 20.6625 20.4811 20.1524 20.914 19.4978C21.3468 18.8433 21.5778 18.0738 21.5778 17.2865C21.5778 16.7639 21.4759 16.2463 21.278 15.7634C21.08 15.2805 20.7899 14.8417 20.4241 14.4721C20.0583 14.1025 19.6241 13.8093 19.1462 13.6093C18.6683 13.4093 18.1561 13.3063 17.6388 13.3063ZM17.6388 19.7745C17.1527 19.7745 16.6776 19.6288 16.2734 19.3559C15.8692 19.0831 15.5542 18.6952 15.3682 18.2414C15.1822 17.7876 15.1335 17.2883 15.2284 16.8066C15.3232 16.3248 15.5573 15.8823 15.901 15.535C16.2447 15.1877 16.6826 14.9512 17.1593 14.8554C17.6361 14.7596 18.1302 14.8087 18.5793 14.9967C19.0284 15.1847 19.4122 15.503 19.6823 15.9114C19.9524 16.3197 20.0965 16.7999 20.0965 17.2911C20.0944 17.9491 19.8348 18.5795 19.3744 19.0448C18.9139 19.5101 18.29 19.7724 17.6388 19.7745Z" fill="#303030"/>
<path d="M21.8737 13.5401C22.1643 13.5401 22.3999 13.3021 22.3999 13.0084C22.3999 12.7148 22.1643 12.4767 21.8737 12.4767C21.5831 12.4767 21.3475 12.7148 21.3475 13.0084C21.3475 13.3021 21.5831 13.5401 21.8737 13.5401Z" fill="#303030"/>
</svg>
