<svg width="34" height="34" viewBox="0 0 34 34" fill="none" xmlns="http://www.w3.org/2000/svg">
<path d="M17.4678 33.4106C26.5983 33.4106 34.0001 25.9314 34.0001 16.7053C34.0001 7.47921 26.5983 0 17.4678 0C8.33727 0 0.935516 7.47921 0.935516 16.7053C0.935516 25.9314 8.33727 33.4106 17.4678 33.4106Z" fill="white"/>
<path d="M24.6843 12.2802C24.2561 11.5104 23.7907 11.3706 22.8477 11.3152C21.9047 11.2597 19.5248 11.2242 17.4698 11.2242C15.4148 11.2242 13.0283 11.2519 12.0842 11.3141C11.1401 11.3762 10.6736 11.5104 10.2443 12.2802C9.67288 13.6787 9.44355 15.1957 9.57581 16.7028V16.7117C9.44315 18.2159 9.67252 19.7301 10.2443 21.1254C10.6758 21.8952 11.1412 22.035 12.0842 22.1004C13.0272 22.1658 15.4071 22.188 17.4687 22.188C19.5303 22.188 21.9036 22.1536 22.8477 22.1004C23.7918 22.0472 24.2594 21.8952 24.6843 21.1254C25.2578 19.7306 25.4873 18.2159 25.3528 16.7117V16.7028C25.4887 15.1956 25.2592 13.6777 24.6843 12.2802ZM15.4938 19.6956V13.7156L20.425 16.7106L15.4938 19.6956Z" fill="#303030"/>
</svg>
